<?xml version="1.0" encoding="UTF-8"?>
<svg id="Capa_1" data-name="Capa 1" xmlns="http://www.w3.org/2000/svg" viewBox="0 0 870.36 191.25">
  <defs>
    <style>
      .cls-1 {
        fill: #fffeff;
      }

      .cls-2 {
        fill: #0b0b0d;
      }

      .cls-3 {
        fill: #347140;
      }
    </style>
  </defs>
  <path class="cls-3" d="M170.68,191.25H36.61C15.73,191.24-.02,172.46,0,153.79L.14,36.91C.17,14.98,18.74-.04,40.43,0l129.38.26c19.85,2.85,33.69,18.2,33.68,37.85l-.05,115.87c0,18.93-13.54,34.06-32.75,37.27ZM151.05,163.2c4.82.55,8.18.61,12.17-.13l.33-70.96c4.58,1.94,6.28,4.56,9.85,5.4s7.18-.66,8.61-3.43c1.7-3.3.43-6.54-2.58-8.79l-26.75-20-.17-32.58c-5.86-.33-11.54-.52-17.37.03l-.78,19.51-29.87-22.35c-1.72-1.29-3.53-1.25-5.15-.02l-14.6,11.13-62.04,46.02c-2.56,1.9-1.25,6.31,0,7.96,4.65,6.18,11.76.93,17.44-3l.31,71.01c4.33.77,7.95.84,12.21-.03l.17-79.97,49.05-36.78,48.99,36.86.18,80.09ZM111.51,154.18l.34-24.61,21.81-.51-.08-18.61-21.85-.33-.57-23.52-18.75.14-.29,23.37-22.05.49.38,18.66,21.72.43.34,25.01c6.57-.1,12.8.76,19-.51Z"/>
  <path class="cls-1" d="M151.05,163.2l-.18-80.09-48.99-36.86-49.05,36.78-.17,79.97c-4.26.87-7.88.79-12.21.03l-.31-71.01c-5.68,3.93-12.78,9.18-17.44,3-1.24-1.65-2.55-6.07,0-7.96l62.04-46.02,14.6-11.13c1.61-1.23,3.43-1.27,5.15.02l29.87,22.35.78-19.51c5.83-.55,11.51-.36,17.37-.03l.17,32.58,26.75,20c3.01,2.25,4.28,5.5,2.58,8.79-1.43,2.77-4.95,4.29-8.61,3.43s-5.28-3.46-9.85-5.4l-.33,70.96c-3.99.73-7.34.68-12.17.13Z"/>
  <path class="cls-1" d="M111.51,154.18c-6.2,1.27-12.43.4-19,.51l-.34-25.01-21.72-.43-.38-18.66,22.05-.49.29-23.37,18.75-.14.57,23.52,21.85.33.08,18.61-21.81.51-.34,24.61Z"/>
  <path class="cls-2" d="M494.9,149.38c-15.34,4.87-30.81-2.62-36.78-17.04-5.63-13.6-5.81-29.34-.44-42.96,4.95-12.56,16.42-19.7,29.86-19.41,7.24.16,12.92,2.61,17.97,8.74l.52-40.15,20.92.18.02,110.49c-6.83.14-13.09.49-19.42-.18-.77-3.03-.14-5.69-1.61-8.61-3.4,3.8-6.04,7.36-11.04,8.95ZM505.49,99.98c-.68-7.13-6.25-12.11-12.69-12.61-7.12-.55-13.32,3.29-15.41,10.31-2.47,8.3-2.31,17.4.43,25.61,2.2,6.6,8.32,10.15,15.02,9.66,14.9-1.08,13.66-22.39,12.65-32.97Z"/>
  <path class="cls-2" d="M290.87,131.03c10.45-.24,17.23-6.58,18.9-16.28,7.89-.39,15.1-.46,22.95-.06-3.47,24.68-21.82,37.58-46.58,35.98-18.57-1.2-33.55-12.03-39.9-29.27-5.69-15.46-5.79-32.44,0-47.91,6.8-18.19,23.4-29.38,43.22-29.58,24.62-.25,41.35,13.95,42.86,37.26l-22.4-.13c-1.25-6.04-3.15-11.99-8.76-15.19-12.3-7.02-27.55-1.22-32.62,11.95-4.8,12.47-4.75,26.74.1,39.07,3.65,9.28,11.83,14.41,22.24,14.17Z"/>
  <path class="cls-2" d="M408.29,71.47l.29,77.71-20.3.14-1.11-9.6c-5.47,8.5-14.29,11.91-24.33,10.99-11.81-1.09-21.46-9.36-21.55-21.67l-.4-57.59,21.46-.11.27,50.63c.02,3.42,1.76,6.6,3.83,8.31,2.79,2.3,6.43,2.85,10.25,1.97,5.64-1.3,9.54-6.59,9.6-12.51l.48-48.42,21.51.12Z"/>
  <rect class="cls-2" x="421.93" y="71.2" width="21.42" height="78.21"/>
  <ellipse class="cls-2" cx="432.62" cy="49.71" rx="12.97" ry="12.63"/>
  <path class="cls-1" d="M505.49,99.98c1.01,10.59,2.25,31.89-12.65,32.97-6.7.49-12.81-3.06-15.02-9.66-2.74-8.21-2.9-17.32-.43-25.61,2.09-7.02,8.28-10.86,15.41-10.31,6.44.5,12.01,5.47,12.69,12.61Z"/>
  <polygon class="cls-3" points="839.55 106.07 870.36 149.06 844.21 149.45 819.43 113.57 819.18 149.36 797.69 149.38 797.67 38.58 819.11 38.48 819.37 101.9 842.59 71.25 867.34 71.6 839.55 106.07"/>
  <path class="cls-3" d="M743.02,92.62c-2.59,3.59-3.38,7.88-3.4,11.87l-.2,44.85-21.37-.02.09-78.1,19.71.13c1.34,3.46.17,6.64,2.16,10.03,4.77-8.08,12.69-11.32,21.57-11.44,10.74-.14,19.73,6.06,22.25,16.33,1.08,4.39,1.62,8.85,1.63,13.56l.03,49.5h-21.9s-.11-49.51-.11-49.51c0-3.23-.73-6.87-3.17-9.14-4.78-4.46-13.25-3.67-17.31,1.95Z"/>
  <polygon class="cls-3" points="675.78 129.86 675.88 149.41 617.43 149.42 617.45 45.59 639.47 45.57 639.5 129.78 675.78 129.86"/>
  <rect class="cls-3" x="683.98" y="71.16" width="21.74" height="78.29"/>
  <ellipse class="cls-3" cx="694.91" cy="49.71" rx="13.04" ry="12.7"/>
  <path class="cls-2" d="M558.69,150.67c-12.51-1.41-20.67-10.02-21.13-21.85-.9-23.19,25.11-27.83,44.71-26.88,1.47-3.43,1.45-9.1-1.76-12.25-4.62-4.55-13.03-4.09-17.81-.2-2.39,1.94-2.43,4.7-3.28,7.37l-20.62-.06c.68-10.28,6.47-19.69,16.42-23.52,9.96-3.83,21.03-4.17,31.2-1.19,10.44,3.06,17.71,11.71,17.78,22.34l.28,38.13c.04,5.79.27,11.05,1.3,16.7h-20.27c-1.49-2.22-.65-4.58-2.2-7.55-5.56,7.67-14.91,10.07-24.64,8.97ZM583.01,114.81c-8.15.25-21.71-.13-23.88,8.49-.95,3.79-.25,7.97,3.23,10.31,3.8,2.56,8.93,2.53,13.49.35,7.04-3.36,8.23-12.46,7.16-19.15Z"/>
  <path class="cls-1" d="M583.01,114.81c1.07,6.7-.13,15.79-7.16,19.15-4.55,2.18-9.69,2.21-13.49-.35-3.48-2.34-4.18-6.52-3.23-10.31,2.17-8.63,15.73-8.25,23.88-8.49Z"/>
</svg>